<svg width="68" height="68" viewBox="0 0 68 68" fill="none" xmlns="http://www.w3.org/2000/svg">
<path d="M34 59.5C48.0833 59.5 59.5 48.0833 59.5 34C59.5 19.9167 48.0833 8.5 34 8.5C19.9167 8.5 8.5 19.9167 8.5 34C8.5 48.0833 19.9167 59.5 34 59.5Z" fill="#9EC7A7" stroke="#818181" stroke-opacity="0.4" stroke-width="2" stroke-miterlimit="10"/>
<path d="M23.375 42.5H44.625" stroke="#F6F6F6" stroke-width="2" stroke-linecap="round" stroke-linejoin="round"/>
<path d="M24.4375 31.875C26.1979 31.875 27.625 30.4479 27.625 28.6875C27.625 26.9271 26.1979 25.5 24.4375 25.5C22.6771 25.5 21.25 26.9271 21.25 28.6875C21.25 30.4479 22.6771 31.875 24.4375 31.875Z" fill="#F6F6F6"/>
<path d="M43.5625 31.875C45.3229 31.875 46.75 30.4479 46.75 28.6875C46.75 26.9271 45.3229 25.5 43.5625 25.5C41.8021 25.5 40.375 26.9271 40.375 28.6875C40.375 30.4479 41.8021 31.875 43.5625 31.875Z" fill="#F6F6F6"/>
</svg>
