<svg width="30" height="30" viewBox="0 0 30 30" fill="none" xmlns="http://www.w3.org/2000/svg">
<rect x="0.5" y="0.5" width="29" height="29" stroke="black"/>
<path d="M16.875 4.6875H13.125" stroke="#121314" stroke-width="1.5" stroke-linecap="round" stroke-linejoin="round"/>
<path d="M13.125 25.3125H16.875" stroke="#121314" stroke-width="1.5" stroke-linecap="round" stroke-linejoin="round"/>
<path d="M21.5625 4.6875H24.375C24.6236 4.6875 24.8621 4.78627 25.0379 4.96209C25.2137 5.1379 25.3125 5.37636 25.3125 5.625V8.4375" stroke="#121314" stroke-width="1.5" stroke-linecap="round" stroke-linejoin="round"/>
<path d="M25.3125 16.875V13.125" stroke="#121314" stroke-width="1.5" stroke-linecap="round" stroke-linejoin="round"/>
<path d="M21.5625 25.3125H24.375C24.6236 25.3125 24.8621 25.2137 25.0379 25.0379C25.2137 24.8621 25.3125 24.6236 25.3125 24.375V21.5625" stroke="#121314" stroke-width="1.5" stroke-linecap="round" stroke-linejoin="round"/>
<path d="M4.6875 13.125V16.875" stroke="#121314" stroke-width="1.5" stroke-linecap="round" stroke-linejoin="round"/>
<path d="M8.4375 25.3125H5.625C5.37636 25.3125 5.1379 25.2137 4.96209 25.0379C4.78627 24.8621 4.6875 24.6236 4.6875 24.375V21.5625" stroke="#121314" stroke-width="1.5" stroke-linecap="round" stroke-linejoin="round"/>
<path d="M8.4375 4.6875H5.625C5.37636 4.6875 5.1379 4.78627 4.96209 4.96209C4.78627 5.1379 4.6875 5.37636 4.6875 5.625V8.4375" stroke="#121314" stroke-width="1.5" stroke-linecap="round" stroke-linejoin="round"/>
<path d="M20.625 9.375H9.375V20.625H20.625V9.375Z" stroke="#121314" stroke-width="1.5" stroke-linecap="round" stroke-linejoin="round"/>
</svg>
