<svg width="95" height="60" viewBox="0 0 95 60" fill="none" xmlns="http://www.w3.org/2000/svg">
<g clip-path="url(#clip0_113_292)">
<path d="M28.712 34.6917V29.8211H22.9976V28.7079H33.3369C33.5362 27.6417 33.6761 26.2641 33.6761 25.2149V23.0653H23.5063V21.9692H36.6562V25.2149C36.6562 26.2812 36.4739 27.6417 36.2577 28.7079H37.4701V29.8211H31.7557V34.6917H28.712Z" fill="#005CAB"/>
<path d="M39.6661 24.6731V23.5898H42.1418V21.6577H45.1813V23.5898H47.6527V24.6731H39.6619H39.6661ZM43.6594 34.2565C41.4635 34.2565 39.9713 32.5121 39.9713 29.8508C39.9713 27.1894 41.4635 25.445 43.6594 25.445C45.8553 25.445 47.3602 27.1894 47.3602 29.8508C47.3602 32.5121 45.8553 34.2565 43.6594 34.2565ZM43.6594 26.5283C42.8921 26.5283 42.5827 28.0595 42.5827 29.8508C42.5827 31.6421 42.8879 33.1732 43.6594 33.1732C44.4309 33.1732 44.7362 31.6421 44.7362 29.8508C44.7362 28.0595 44.4437 26.5283 43.6594 26.5283ZM48.2208 34.6873V23.2187C48.2208 22.4467 48.5896 21.8113 49.5731 21.8113H50.8787V27.778H51.8453V23.2187C51.8453 22.4467 52.2141 21.8113 53.1976 21.8113H54.5329V34.6873H51.8453V28.8613H50.8787V34.6873H48.2208Z" fill="#005CAB"/>
<path d="M60.9425 34.6913V30.132H57.5342V29.0189H67.9032V30.132H63.9862V34.6913H60.9425ZM64.0456 23.0521V23.5938C64.0456 25.5728 65.6141 26.7798 67.4242 27.1167V28.2C65.4275 27.9526 63.6132 27.0698 62.5406 25.8031C61.4639 27.0698 59.6538 27.9526 57.6571 28.2V27.1167C59.4715 26.7755 61.0357 25.5728 61.0357 23.5938V23.0521H57.9623V21.9688H67.119V23.0521H64.0456ZM68.8231 34.6913V32.4181H65.5378V31.3348H68.8231V23.2185C68.8231 22.4465 69.1919 21.811 70.1754 21.811H71.8033V34.6871H68.8231V34.6913Z" fill="#005CAB"/>
<path d="M40.3867 45.5802V46.4758H46.1774V47.5591H31.5522V46.4758H37.343V45.5802C33.8244 45.4266 32.1033 44.7314 32.1033 43.6481C32.1033 42.4283 34.3162 41.6862 38.8648 41.6862C43.4135 41.6862 45.6263 42.4283 45.6263 43.6481C45.6263 44.7314 43.9052 45.4266 40.3867 45.5802ZM31.8278 41.3152V40.2319H37.343V39.0718H40.3867V40.2319H45.9019V41.3152H31.8278ZM45.5924 52.4127H33.4853C32.5018 52.4127 32.133 51.7772 32.133 51.0052V48.3951H45.5924V52.4127ZM38.8648 42.7695C36.8385 42.7695 35.0835 42.9529 35.0835 43.6524C35.0835 44.3518 36.8343 44.5352 38.8648 44.5352C40.8954 44.5352 42.6462 44.3518 42.6462 43.6524C42.6462 42.9529 40.8954 42.7695 38.8648 42.7695ZM35.1174 49.4784V51.3336H42.6123V49.4784H35.1174Z" fill="#005CAB"/>
<path d="M48.8989 51.8537V50.7406H63.3715V51.8537H48.8989ZM56.1352 44.6501C54.7659 46.2282 52.1546 47.4011 49.2508 47.7252V46.6291C52.5065 46.1045 54.6133 44.1085 54.6133 41.9163V40.7733H49.4839V39.6899H62.7865V40.7733H57.6571V41.9163C57.6571 44.1127 59.7597 46.1045 63.0196 46.6291V47.7252C60.1158 47.4011 57.5045 46.2239 56.1352 44.6501Z" fill="#005CAB"/>
<path d="M1.4835 27.872C0.953606 27.872 0.444905 27.5863 0.173597 27.0873C-0.216407 26.3622 0.0549004 25.458 0.7798 25.0657L46.7961 0.179386C47.5167 -0.208728 48.4197 0.0599665 48.8055 0.789281C49.1955 1.51433 48.9242 2.41851 48.1993 2.81089L2.18721 27.6929C1.96253 27.8123 1.72514 27.872 1.48774 27.872H1.4835Z" fill="#005CAB"/>
<path d="M93.5164 27.8715C93.279 27.8715 93.0373 27.8161 92.8169 27.6924L46.7964 2.80614C46.0757 2.41376 45.8044 1.50958 46.1902 0.78453C46.5802 0.0594803 47.4789 -0.21348 48.1995 0.174635L94.2158 25.0609C94.9365 25.4533 95.2078 26.3575 94.822 27.0825C94.555 27.5858 94.042 27.8673 93.5121 27.8673L93.5164 27.8715Z" fill="#005CAB"/>
<path d="M93.5163 60.0002H1.48371C0.665551 60.0002 0 59.3349 0 58.5074V39.0719C0 38.2487 0.665551 37.5791 1.48371 37.5791C2.30187 37.5791 2.96743 38.2487 2.96743 39.0719V57.0147H92.0326V39.0719C92.0326 38.2487 92.6981 37.5791 93.5163 37.5791C94.3344 37.5791 95 38.2487 95 39.0719V58.5074C95 59.3306 94.3344 60.0002 93.5163 60.0002Z" fill="#005CAB"/>
</g>
<defs>
<clipPath id="clip0_113_292">
<rect width="95" height="60" fill="white"/>
</clipPath>
</defs>
</svg>
