<svg width="186" height="117" viewBox="0 0 186 117" fill="none" xmlns="http://www.w3.org/2000/svg">
<g clip-path="url(#clip0_113_252)">
<path d="M56.2151 67.6482V58.1505H45.0269V55.9798H65.2702C65.6603 53.9006 65.9342 51.2143 65.9342 49.1684V44.9768H46.0228V42.8394H71.769V49.1684C71.769 51.2476 71.4121 53.9006 70.9888 55.9798H73.3626V58.1505H62.1744V67.6482H56.2151Z" fill="#005CAB"/>
<path d="M77.6619 48.1124V45.9999H82.509V42.2324H88.46V45.9999H93.2988V48.1124H77.6536H77.6619ZM85.4803 66.8001C81.181 66.8001 78.2595 63.3985 78.2595 58.2089C78.2595 53.0192 81.181 49.6177 85.4803 49.6177C89.7797 49.6177 92.7261 53.0192 92.7261 58.2089C92.7261 63.3985 89.7797 66.8001 85.4803 66.8001ZM85.4803 51.7301C83.9781 51.7301 83.3722 54.7159 83.3722 58.2089C83.3722 61.7019 83.9698 64.6876 85.4803 64.6876C86.9909 64.6876 87.5885 61.7019 87.5885 58.2089C87.5885 54.7159 87.0158 51.7301 85.4803 51.7301ZM94.411 67.6401V45.2764C94.411 43.771 95.1331 42.5318 97.0587 42.5318H99.615V54.167H101.507V45.2764C101.507 43.771 102.229 42.5318 104.155 42.5318H106.769V67.6401H101.507V56.2794H99.615V67.6401H94.411Z" fill="#005CAB"/>
<path d="M119.319 67.6483V58.7577H112.646V56.587H132.947V58.7577H125.278V67.6483H119.319ZM125.394 44.9519V46.0081C125.394 49.8671 128.465 52.2208 132.009 52.8778V54.9902C128.1 54.5079 124.548 52.7863 122.448 50.3162C120.34 52.7863 116.796 54.5079 112.886 54.9902V52.8778C116.439 52.2124 119.501 49.8671 119.501 46.0081V44.9519H113.484V42.8395H131.412V44.9519H125.394ZM134.748 67.6483V63.2155H128.316V61.103H134.748V45.2763C134.748 43.7709 135.47 42.5317 137.396 42.5317H140.583V67.64H134.748V67.6483Z" fill="#005CAB"/>
<path d="M79.0728 88.8813V90.6278H90.4104V92.7403H61.7759V90.6278H73.1135V88.8813C66.2246 88.5819 62.8549 87.2263 62.8549 85.1138C62.8549 82.7352 67.1874 81.2881 76.0931 81.2881C84.9989 81.2881 89.3314 82.7352 89.3314 85.1138C89.3314 87.2263 85.9617 88.5819 79.0728 88.8813ZM62.3154 80.5646V78.4521H73.1135V76.1899H79.0728V78.4521H89.8709V80.5646H62.3154ZM89.265 102.205H65.5606C63.635 102.205 62.913 100.966 62.913 99.4602V94.3704H89.265V102.205ZM76.0931 83.4006C72.1258 83.4006 68.6897 83.7582 68.6897 85.1221C68.6897 86.4861 72.1175 86.8437 76.0931 86.8437C80.0688 86.8437 83.4966 86.4861 83.4966 85.1221C83.4966 83.7582 80.0688 83.4006 76.0931 83.4006ZM68.7561 96.4828V100.101H83.4302V96.4828H68.7561Z" fill="#005CAB"/>
<path d="M95.739 101.115V98.9442H124.075V101.115H95.739ZM109.907 87.0679C107.226 90.1451 102.113 92.4322 96.4279 93.0643V90.9269C102.802 89.9039 106.927 86.0117 106.927 81.7369V79.508H96.8844V77.3955H122.929V79.508H112.887V81.7369C112.887 86.02 117.003 89.9039 123.386 90.9269V93.0643C117.7 92.4322 112.588 90.1368 109.907 87.0679Z" fill="#005CAB"/>
<path d="M2.90484 54.3501C1.86735 54.3501 0.87137 53.7928 0.340178 52.8198C-0.423409 51.4059 0.107782 49.6428 1.52706 48.8776L91.6221 0.349413C93.0331 -0.407411 94.8009 0.116544 95.5562 1.53871C96.3198 2.95256 95.7886 4.71571 94.3694 5.48085L4.28261 54.0008C3.84272 54.2336 3.37793 54.3501 2.91314 54.3501H2.90484Z" fill="#005CAB"/>
<path d="M183.095 54.3499C182.63 54.3499 182.157 54.2418 181.726 54.0006L91.6223 5.47236C90.2113 4.70722 89.6802 2.94407 90.4354 1.53022C91.199 0.116377 92.9586 -0.415895 94.3696 0.340929L184.465 48.8691C185.876 49.6343 186.407 51.3974 185.651 52.8113C185.129 53.7927 184.124 54.3416 183.087 54.3416L183.095 54.3499Z" fill="#005CAB"/>
<path d="M183.095 117H2.90495C1.30308 117 0 115.703 0 114.089V76.1897C0 74.5845 1.30308 73.2788 2.90495 73.2788C4.50683 73.2788 5.80991 74.5845 5.80991 76.1897V111.178H180.19V76.1897C180.19 74.5845 181.493 73.2788 183.095 73.2788C184.697 73.2788 186 74.5845 186 76.1897V114.089C186 115.694 184.697 117 183.095 117Z" fill="#005CAB"/>
</g>
<defs>
<clipPath id="clip0_113_252">
<rect width="186" height="117" fill="white"/>
</clipPath>
</defs>
</svg>
