<svg width="119" height="46" viewBox="0 0 119 46" fill="none" xmlns="http://www.w3.org/2000/svg">
<path d="M72.768 16.584V18.216C72.768 23.016 75.136 28.104 80.064 30.152L77.76 33.48C74.336 32.008 72 29.128 70.688 25.576C69.376 29.416 67.008 32.648 63.552 34.216L61.152 30.856C66.08 28.648 68.48 23.24 68.48 18.216V16.584H62.336V13.096H78.848V16.584H72.768ZM81.568 10.28H85.792V39.752H81.568V10.28ZM106.238 32.968H117.502V36.424H90.8135V32.968H102.014V26.824H93.9175V12.296H114.43V15.688H98.1735V23.432H114.654V26.824H106.238V32.968Z" fill="#060606"/>
<path fill-rule="evenodd" clip-rule="evenodd" d="M15.1251 18.5C15.1251 14.703 18.2031 11.625 22.0001 11.625C25.797 11.625 28.8751 14.703 28.8751 18.5C28.8751 22.297 25.797 25.375 22.0001 25.375C18.2031 25.375 15.1251 22.297 15.1251 18.5ZM22.0001 14.375C19.7219 14.375 17.8751 16.2218 17.8751 18.5C17.8751 20.7782 19.7219 22.625 22.0001 22.625C24.2783 22.625 26.1251 20.7782 26.1251 18.5C26.1251 16.2218 24.2783 14.375 22.0001 14.375Z" fill="#060606"/>
<path fill-rule="evenodd" clip-rule="evenodd" d="M10.0035 16.8999C10.5054 10.811 15.5936 6.125 21.7031 6.125H22.297C28.4066 6.125 33.4948 10.8111 33.9967 16.8999C34.2657 20.1638 33.2575 23.4046 31.1845 25.9399L24.594 33.9998C23.2534 35.6394 20.7468 35.6394 19.4061 33.9998L12.8157 25.9399C10.7426 23.4046 9.73447 20.1638 10.0035 16.8999ZM21.7031 8.875C17.0248 8.875 13.1285 12.4633 12.7442 17.1258C12.5337 19.6796 13.3225 22.2154 14.9446 24.1991L21.535 32.2591C21.7754 32.553 22.2248 32.553 22.4651 32.2591L29.0556 24.1991C30.6776 22.2154 31.4665 19.6796 31.256 17.1258C30.8716 12.4633 26.9754 8.875 22.297 8.875H21.7031Z" fill="#060606"/>
<path d="M14.0633 31.9482C14.4029 31.269 14.1276 30.4431 13.4483 30.1035C12.7691 29.7639 11.9432 30.0392 11.6036 30.7184L7.93691 38.0517C7.7238 38.478 7.74657 38.9842 7.9971 39.3895C8.24764 39.7949 8.69021 40.0417 9.16675 40.0417H34.8334C35.31 40.0417 35.7525 39.7949 36.0031 39.3895C36.2536 38.9842 36.2764 38.478 36.0633 38.0517L32.3966 30.7184C32.057 30.0392 31.2311 29.7639 30.5518 30.1035C29.8726 30.4431 29.5973 31.269 29.9369 31.9482L32.6086 37.2917H11.3915L14.0633 31.9482Z" fill="#060606"/>
</svg>
