<svg width="30" height="35" viewBox="0 0 30 35" fill="none" xmlns="http://www.w3.org/2000/svg">
<path fill-rule="evenodd" clip-rule="evenodd" d="M8.12508 12.5C8.12508 8.70304 11.2031 5.625 15.0001 5.625C18.797 5.625 21.8751 8.70304 21.8751 12.5C21.8751 16.297 18.797 19.375 15.0001 19.375C11.2031 19.375 8.12508 16.297 8.12508 12.5ZM15.0001 8.375C12.7219 8.375 10.8751 10.2218 10.8751 12.5C10.8751 14.7782 12.7219 16.625 15.0001 16.625C17.2783 16.625 19.1251 14.7782 19.1251 12.5C19.1251 10.2218 17.2783 8.375 15.0001 8.375Z" fill="#060606"/>
<path fill-rule="evenodd" clip-rule="evenodd" d="M3.0035 10.8999C3.5054 4.81105 8.5936 0.125 14.7031 0.125H15.297C21.4066 0.125 26.4948 4.81105 26.9967 10.8999C27.2657 14.1638 26.2575 17.4046 24.1845 19.9399L17.594 27.9998C16.2534 29.6394 13.7468 29.6394 12.4061 27.9998L5.81567 19.9399C3.74264 17.4046 2.73447 14.1638 3.0035 10.8999ZM14.7031 2.875C10.0248 2.875 6.12853 6.46332 5.7442 11.1258C5.5337 13.6796 6.32254 16.2154 7.94458 18.1991L14.535 26.2591C14.7754 26.553 15.2248 26.553 15.4651 26.2591L22.0556 18.1991C23.6776 16.2154 24.4665 13.6796 24.256 11.1258C23.8716 6.46332 19.9754 2.875 15.297 2.875H14.7031Z" fill="#060606"/>
<path d="M7.06325 25.9482C7.40286 25.269 7.12755 24.4431 6.44833 24.1035C5.76911 23.7639 4.94319 24.0392 4.60358 24.7184L0.936912 32.0517C0.723795 32.478 0.746571 32.9842 0.997105 33.3895C1.24764 33.7949 1.69021 34.0417 2.16675 34.0417H27.8334C28.31 34.0417 28.7525 33.7949 29.0031 33.3895C29.2536 32.9842 29.2764 32.478 29.0633 32.0517L25.3966 24.7184C25.057 24.0392 24.231 23.7639 23.5518 24.1035C22.8726 24.4431 22.5973 25.269 22.9369 25.9482L25.6086 31.2917H4.39155L7.06325 25.9482Z" fill="#060606"/>
</svg>
