<svg width="30" height="30" viewBox="0 0 30 30" fill="none" xmlns="http://www.w3.org/2000/svg">
<path d="M25.3125 25.3124V13.5351C25.3104 13.4054 25.2824 13.2773 25.23 13.1586C25.1777 13.0399 25.1022 12.9328 25.0078 12.8437L15.6328 4.32416C15.46 4.16606 15.2342 4.07837 15 4.07837C14.7658 4.07837 14.54 4.16606 14.3672 4.32416L4.99219 12.8437C4.89785 12.9328 4.82229 13.0399 4.76996 13.1586C4.71764 13.2773 4.6896 13.4054 4.6875 13.5351V25.3124" stroke="#060606" stroke-width="2" stroke-linecap="round" stroke-linejoin="round"/>
<path d="M1.875 25.3125H28.125" stroke="#060606" stroke-width="2" stroke-linecap="round" stroke-linejoin="round"/>
<path d="M17.8125 25.3125V18.75C17.8125 18.5014 17.7137 18.2629 17.5379 18.0871C17.3621 17.9113 17.1236 17.8125 16.875 17.8125H13.125C12.8764 17.8125 12.6379 17.9113 12.4621 18.0871C12.2863 18.2629 12.1875 18.5014 12.1875 18.75V25.3125" stroke="#060606" stroke-width="2" stroke-linecap="round" stroke-linejoin="round"/>
</svg>
