<svg width="25" height="25" viewBox="0 0 25 25" fill="none" xmlns="http://www.w3.org/2000/svg">
<path d="M12.5 21.875C17.6777 21.875 21.875 17.6777 21.875 12.5C21.875 7.32233 17.6777 3.125 12.5 3.125C7.32233 3.125 3.125 7.32233 3.125 12.5C3.125 17.6777 7.32233 21.875 12.5 21.875Z" fill="#FB9F66" stroke="#818181" stroke-opacity="0.4" stroke-miterlimit="10"/>
<path d="M8.98438 11.7188C9.63158 11.7188 10.1562 11.1941 10.1562 10.5469C10.1562 9.89967 9.63158 9.375 8.98438 9.375C8.33717 9.375 7.8125 9.89967 7.8125 10.5469C7.8125 11.1941 8.33717 11.7188 8.98438 11.7188Z" fill="white"/>
<path d="M16.0156 11.7188C16.6628 11.7188 17.1875 11.1941 17.1875 10.5469C17.1875 9.89967 16.6628 9.375 16.0156 9.375C15.3684 9.375 14.8438 9.89967 14.8438 10.5469C14.8438 11.1941 15.3684 11.7188 16.0156 11.7188Z" fill="white"/>
<path d="M9.40625 10.5469C9.40625 10.7799 9.21737 10.9688 8.98438 10.9688C8.75138 10.9688 8.5625 10.7799 8.5625 10.5469C8.5625 10.3139 8.75138 10.125 8.98438 10.125C9.21737 10.125 9.40625 10.3139 9.40625 10.5469Z" fill="#F6F6F6" stroke="#F6F6F6" stroke-width="1.5"/>
<path d="M16.4375 10.5469C16.4375 10.7799 16.2486 10.9688 16.0156 10.9688C15.7826 10.9688 15.5938 10.7799 15.5938 10.5469C15.5938 10.3139 15.7826 10.125 16.0156 10.125C16.2486 10.125 16.4375 10.3139 16.4375 10.5469Z" fill="#F6F6F6" stroke="#F6F6F6" stroke-width="1.5"/>
<path d="M16.5625 17.1875C16.1495 16.476 15.5569 15.8854 14.8439 15.4749C14.131 15.0644 13.3227 14.8483 12.5 14.8483C11.6773 14.8483 10.869 15.0644 10.1561 15.4749C9.44313 15.8854 8.8505 16.476 8.4375 17.1875" stroke="#F6F6F6" stroke-linecap="round" stroke-linejoin="round"/>
</svg>
