<svg width="68" height="68" viewBox="0 0 68 68" fill="none" xmlns="http://www.w3.org/2000/svg">
<path d="M34 59.5C48.0833 59.5 59.5 48.0833 59.5 34C59.5 19.9167 48.0833 8.5 34 8.5C19.9167 8.5 8.5 19.9167 8.5 34C8.5 48.0833 19.9167 59.5 34 59.5Z" fill="#FB9F66" stroke="#818181" stroke-opacity="0.4" stroke-width="2" stroke-miterlimit="10"/>
<path d="M24.4375 31.875C26.1979 31.875 27.625 30.4479 27.625 28.6875C27.625 26.9271 26.1979 25.5 24.4375 25.5C22.6771 25.5 21.25 26.9271 21.25 28.6875C21.25 30.4479 22.6771 31.875 24.4375 31.875Z" fill="white"/>
<path d="M43.5625 31.875C45.3229 31.875 46.75 30.4479 46.75 28.6875C46.75 26.9271 45.3229 25.5 43.5625 25.5C41.8021 25.5 40.375 26.9271 40.375 28.6875C40.375 30.4479 41.8021 31.875 43.5625 31.875Z" fill="white"/>
<path d="M26.875 28.6875C26.875 30.0337 25.7837 31.125 24.4375 31.125C23.0913 31.125 22 30.0337 22 28.6875C22 27.3413 23.0913 26.25 24.4375 26.25C25.7837 26.25 26.875 27.3413 26.875 28.6875Z" fill="#F6F6F6" stroke="#F6F6F6" stroke-width="1.5"/>
<path d="M46 28.6875C46 30.0337 44.9087 31.125 43.5625 31.125C42.2163 31.125 41.125 30.0337 41.125 28.6875C41.125 27.3413 42.2163 26.25 43.5625 26.25C44.9087 26.25 46 27.3413 46 28.6875Z" fill="#F6F6F6" stroke="#F6F6F6" stroke-width="1.5"/>
<path d="M45.0502 46.7501C43.9268 44.8148 42.3149 43.2084 40.3757 42.0918C38.4364 40.9752 36.2379 40.3875 34.0002 40.3875C31.7625 40.3875 29.564 40.9752 27.6247 42.0918C25.6855 43.2084 24.0735 44.8148 22.9502 46.7501" stroke="#F6F6F6" stroke-width="2" stroke-linecap="round" stroke-linejoin="round"/>
</svg>
