<svg width="299" height="70" viewBox="0 0 299 70" fill="none" xmlns="http://www.w3.org/2000/svg">
<g clip-path="url(#clip0_541_3429)">
<path opacity="0.8" d="M187.678 37.5117H171.023V47.796H187.678V37.5117Z" fill="#0B9BDA"/>
<path d="M30.2611 69.6301L20.4947 24.7194L10.8022 69.6301H0L15.5375 0.36994H25.5258L41.0633 69.6301H30.2611ZM60.5961 70H50.3118V32.932H37.8078V22.8697H50.3118V0H60.5961V70Z" fill="#005CAA"/>
<path d="M138.061 58.3767H92.6329V61.8541H138.061V69.9928H83.0144V50.5339H128.443V47.1305H83.0144V39.2878H105.359V35.2924H78.7231V27.3017H142.36V35.2924H115.725V39.2878H138.069V58.3767H138.061ZM125.484 0.370117C132.808 0.370117 138.653 4.95737 138.653 12.2082C138.653 19.459 132.808 23.9723 125.484 23.9723H95.5924C88.3416 23.9723 82.4225 19.459 82.4225 12.2082C82.4225 4.95737 88.3416 0.370117 95.5924 0.370117H125.484ZM95.6664 9.17468C93.8907 9.17468 92.4849 10.4325 92.4849 12.2082C92.4849 13.9839 93.8907 15.2417 95.6664 15.2417H125.41C127.185 15.2417 128.591 13.9839 128.591 12.2082C128.591 10.4325 127.185 9.17468 125.41 9.17468H95.6664Z" fill="#005CAA"/>
<path d="M189.631 69.6301L179.347 24.2754L169.063 69.6301H158.186L174.316 0.36994H184.378L200.507 69.6301H189.631ZM218.93 70H208.646V0H218.93V70Z" fill="#005CAA"/>
<path d="M275.309 0.36994V10.5803L266.209 17.3132L275.679 24.786V37.142L257.996 23.3802L238.907 37.5119V25.1559L258.44 10.5803H238.907V0.36994H275.309ZM252.373 45.2806H287.739V0H298.098V70H242.015V40.0349H252.373V45.288V45.2806ZM252.373 60.2262H287.739V54.4551H252.373V60.2262Z" fill="#005CAA"/>
</g>
<defs>
<clipPath id="clip0_541_3429">
<rect width="298.097" height="70" fill="white"/>
</clipPath>
</defs>
</svg>
