<svg width="100" height="24" viewBox="0 0 100 24" fill="none" xmlns="http://www.w3.org/2000/svg">
<g clip-path="url(#clip0_541_3478)">
<path opacity="0.8" d="M62.9586 12.5837H57.3716V16.0337H62.9586V12.5837Z" fill="#0B9BDA"/>
<path d="M10.1514 23.3582L6.87516 8.29238L3.62373 23.3582H0L5.21221 0.1241H8.56292L13.7751 23.3582H10.1514ZM20.3276 23.4823H16.8776V11.0474H12.683V7.67188H16.8776V0H20.3276V23.4823Z" fill="#005CAA"/>
<path d="M46.3144 19.5829H31.0749V20.7495H46.3144V23.4797H27.8483V16.952H43.0878V15.8103H27.8483V13.1794H35.3439V11.8391H26.4087V9.15852H47.7564V11.8391H38.8212V13.1794H46.3169V19.5829H46.3144ZM42.095 0.124023C44.5522 0.124023 46.5129 1.66287 46.5129 4.09523C46.5129 6.5276 44.5522 8.04162 42.095 8.04162H32.0677C29.6353 8.04162 27.6497 6.5276 27.6497 4.09523C27.6497 1.66287 29.6353 0.124023 32.0677 0.124023H42.095ZM32.0925 3.07761C31.4968 3.07761 31.0252 3.49955 31.0252 4.09523C31.0252 4.69091 31.4968 5.11285 32.0925 5.11285H42.0701C42.6658 5.11285 43.1374 4.69091 43.1374 4.09523C43.1374 3.49955 42.6658 3.07761 42.0701 3.07761H32.0925Z" fill="#005CAA"/>
<path d="M63.6139 23.3582L60.164 8.14346L56.714 23.3582H53.0654L58.4762 0.1241H61.8517L67.2625 23.3582H63.6139ZM73.4427 23.4823H69.9927V0H73.4427V23.4823Z" fill="#005CAA"/>
<path d="M92.3555 0.1241V3.54927L89.3026 5.80789L92.4796 8.31472V12.4597L86.5476 7.84314L80.144 12.5838V8.43882L86.6965 3.54927H80.144V0.1241H92.3555ZM84.6613 15.1899H96.5253V0H100V23.4823H81.1865V13.4301H84.6613V15.1924V15.1899ZM84.6613 20.2035H96.5253V18.2676H84.6613V20.2035Z" fill="#005CAA"/>
</g>
<defs>
<clipPath id="clip0_541_3478">
<rect width="100" height="23.4823" fill="white"/>
</clipPath>
</defs>
</svg>
